<svg xmlns="http://www.w3.org/2000/svg" viewBox="0 0 48 48" fill="none" aria-hidden="true" focusable="false">
  <circle cx="24" cy="24" r="24" fill="#25D366"/>
  <path
    fill="#fff"
    fill-rule="evenodd"
    clip-rule="evenodd"
    d="M24.06 11C30.96 11 36.6 16.76 36.6 23.94c0 7.02-5.76 13-12.7 13-2.52 0-4.94-.73-7.02-2.1L11 37l2.52-9.74a12.4 12.4 0 0 1-1.94-6.73C11.58 16.73 17.06 11 24.06 11Zm-6.94 26.62.94.53a10.76 10.76 0 0 0 5.94 1.78c6.06 0 11-5.05 11-11.3 0-6.2-4.88-11.2-10.92-11.2-6.1 0-11.1 5.15-11.1 11.26 0 2.15.61 4.08 1.66 5.73l.4.61-1 3.92 4.06-2.54Z"
  />
  <path
    fill="#fff"
    d="M20.94 17.94c-.2-.52-.43-.53-.61-.53l-.53-.03c-.19 0-.48.06-.73.34-.34.37-1.23 1.19-1.23 2.93 0 1.73 1.27 3.43 1.43 3.69.21.32 2.53 4.06 6.42 5.74 4.52 1.91 5.53 1.69 6.72 1.59 1-.12 3.06-1.28 3.48-2.53.43-1.24.43-2.34.31-2.54-.13-.21-.52-.34-1-.59-.53-.31-3.06-1.52-3.53-1.69-.53-.21-.93-.34-1.32.38-.53.93-1.05 1.88-1.48 2.43-.39.53-.98.61-1.44.43-.71-.31-3.43-2.62-6.53-8.43-.73-1.32.05-2.06.61-3.43.43-1 .38-1.9-.28-3.53l-.53-1.22Z"
  />
</svg>
